Coordinates
version=1
nRows=12
nColumns=32
inDegrees=yes

Units are S.I. units (second, meters, Newtons, ...)
If the header above contains a line with 'inDegrees', this indicates whether rotational values are in degrees (yes) or radians (no).

endheader
time	pelvis_tilt	pelvis_list	pelvis_rotation	pelvis_tx	pelvis_ty	pelvis_tz	hip_flexion_r	hip_adduction_r	hip_rotation_r	knee_angle_r	knee_adduction_r	med_cond_adduction_r	lat_cond_adduction_r	patella_r_constrained_knee_angle	ankle_angle_r	subtalar_angle_r	mtp_angle_r	hip_flexion_l	hip_adduction_l	hip_rotation_l	knee_angle_l	knee_adduction_l	med_cond_adduction_l	lat_cond_adduction_l	patella_l_constrained_knee_angle	ankle_angle_l	subtalar_angle_l	mtp_angle_l	lumbar_extension	lumbar_bending	lumbar_rotation
      1.98500000	    -22.18598600	      1.43425090	     -6.35832732	      0.14347932	      0.77459561	     -1.17776463	     59.89233342	    -29.99026648	    -11.41837393	    -55.51756030	      4.66072011	     -0.00000000	     -0.00000000	     -0.96896422	      7.41821450	     11.95416147	     -0.00000000	     54.12543213	    -40.04967222	    -24.37855832	    -55.96092612	      3.18974192	     -0.00000000	      0.00000000	     -0.97670241	      7.20770531	     18.44814777	      0.00000000	     -3.21491966	      0.72756058	      3.06472703
      1.99000000	    -22.00485533	      1.31720733	     -6.33935371	      0.14481865	      0.77961229	     -1.17799104	     58.70043086	    -29.66479552	    -12.03140561	    -54.20415367	      4.51465647	     -0.00000000	     -0.00000000	     -0.94604095	      6.94253563	     11.72222449	      0.00000000	     53.05344275	    -39.73195389	    -24.87238248	    -54.72164475	      3.21783444	      0.00000000	      0.00000000	     -0.95507287	      6.74441549	     18.36982397	     -0.00000000	     -3.17525963	      0.81254437	      2.82754159
      1.99500000	    -22.40924960	      1.05310741	     -5.91210092	      0.14554418	      0.78265552	     -1.17930513	     58.05289647	    -29.67371111	    -12.67390295	    -53.12237172	      4.75888527	      0.00000000	      0.00000000	     -0.92716029	      6.53132122	     11.16668128	      0.00000000	     53.33996654	    -39.15409681	    -24.40006575	    -53.85547544	      3.18962044	     -0.00000000	     -0.00000000	     -0.93995537	      6.54750216	     18.13658317	      0.00000000	     -2.34522910	      1.15907276	      2.03696697
      2.00000000	    -21.57791250	      1.88060369	     -6.26517815	      0.14748704	      0.78933516	     -1.17829487	     56.87843688	    -29.66464741	    -12.19799305	    -51.74167005	      4.52899780	     -0.00000000	     -0.00000000	     -0.90306250	      5.91467670	     11.22981839	     -0.00000000	     50.36165980	    -38.34529065	    -26.98989512	    -52.06244949	      2.89503610	     -0.00000000	     -0.00000000	     -0.90866116	      5.82528868	     18.27623896	     -0.00000000	     -3.09042168	      0.24387087	      2.84982505
      2.00500000	    -21.29907950	      1.77653093	     -6.21964192	      0.14896026	      0.79437741	     -1.17857723	     55.56864060	    -29.36910479	    -12.83466882	    -50.37683068	      4.36521803	      0.00000000	      0.00000000	     -0.87924156	      5.38201274	     11.01760506	     -0.00000000	     49.18989979	    -37.94596704	    -27.51379444	    -50.76642782	      2.87222093	     -0.00000000	     -0.00000000	     -0.88604131	      5.37156401	     18.20653408	      0.00000000	     -3.18881110	      0.37222672	      2.69260018
      2.01000000	    -21.08645132	      2.15691267	     -6.18117665	      0.15032099	      0.79899140	     -1.17875154	     54.73046350	    -29.46105240	    -12.79469792	    -49.16126876	      4.40801222	     -0.00000000	      0.00000000	     -0.85802600	      4.85929474	     10.74275944	      0.00000000	     47.85976032	    -37.10685581	    -28.63163250	    -49.39781230	      2.62834555	      0.00000000	     -0.00000000	     -0.86215447	      4.90803343	     18.17198108	     -0.00000000	     -3.14230960	      0.00366860	      2.77412447
      2.01500000	    -20.78834755	      2.05275758	     -6.12171021	      0.15190084	      0.80384707	     -1.17908671	     53.39676892	    -29.19210354	    -13.45824559	    -47.80643158	      4.24122378	      0.00000000	      0.00000000	     -0.83437963	      4.35496279	     10.57610155	      0.00000000	     46.69149503	    -36.67910325	    -29.12376600	    -48.08769237	      2.60115486	     -0.00000000	     -0.00000000	     -0.83928856	      4.43835182	     18.10559517	      0.00000000	     -3.23944430	      0.08467861	      2.52242260
      2.02000000	    -20.55188080	      2.21646150	     -6.06899100	      0.15329878	      0.80836847	     -1.17936183	     52.36720441	    -29.11346007	    -13.73417631	    -46.52751855	      4.15151973	      0.00000000	      0.00000000	     -0.81205839	      3.82395492	     10.38478086	      0.00000000	     45.52425023	    -36.00291359	    -29.92212921	    -46.77818448	      2.41565658	      0.00000000	      0.00000000	     -0.81643334	      3.95550602	     18.04915995	      0.00000000	     -3.24870245	     -0.08752316	      2.44392128
      2.02500000	    -20.31642216	      2.62447082	     -6.05032952	      0.15471040	      0.81271767	     -1.17950285	     51.54032573	    -29.22343833	    -13.63978313	    -45.32735886	      4.20130589	     -0.00000000	     -0.00000000	     -0.79111165	      3.30984003	     10.09192959	     -0.00000000	     44.21479028	    -35.09635459	    -31.01180838	    -45.37139161	      2.14614439	      0.00000000	      0.00000000	     -0.79188017	      3.46587556	     18.01532989	      0.00000000	     -3.20951713	     -0.52421990	      2.48731408
      2.03000000	    -20.03448042	      2.73097392	     -5.97054246	      0.15624638	      0.81715995	     -1.17989646	     50.39348480	    -29.15521224	    -14.05897001	    -44.03850423	      4.10237671	      0.00000000	      0.00000000	     -0.76861690	      2.77083198	      9.88089938	     -0.00000000	     43.06018110	    -34.40792456	    -31.68889259	    -44.02130174	      1.97099766	     -0.00000000	     -0.00000000	     -0.76831666	      2.97106503	     17.97912046	     -0.00000000	     -3.26775050	     -0.59298804	      2.41405250
      2.03500000	    -19.74376159	      2.89151786	     -5.92104890	      0.15779053	      0.82150819	     -1.18017439	     49.28930985	    -29.08862420	    -14.32606070	    -42.74676818	      4.03762108	     -0.00000000	     -0.00000000	     -0.74607185	      2.25901247	      9.67852076	      0.00000000	     41.85606753	    -33.67982454	    -32.43268830	    -42.64172504	      1.77362163	      0.00000000	     -0.00000000	     -0.74423850	      2.49384109	     17.92985608	      0.00000000	     -3.33581462	     -0.77066973	      2.32245758
      2.04000000	    -19.39306592	      2.60806958	     -5.78554908	      0.15947563	      0.82599356	     -1.18073335	     47.74883909	    -28.70702501	    -15.28594398	    -41.32053545	      3.77050349	      0.00000000	      0.00000000	     -0.72117939	      1.72873671	      9.59630461	     -0.00000000	     40.84635579	    -33.33523324	    -32.63062533	    -41.38808877	      1.73660804	      0.00000000	      0.00000000	     -0.72235842	      1.99407243	     17.87395226	      0.00000000	     -3.51623185	     -0.50967391	      1.90980295
